<?xml version="1.0" encoding="utf-8"?>
<!-- Generator: Adobe Illustrator 24.1.2, SVG Export Plug-In . SVG Version: 6.00 Build 0)  -->
<svg version="1.1" xmlns="http://www.w3.org/2000/svg" xmlns:xlink="http://www.w3.org/1999/xlink" x="0px" y="0px"
	 viewBox="0 0 1800 755" style="enable-background:new 0 0 1800 755;" xml:space="preserve">
<style type="text/css">
	.st0{fill:#FFFFFF;}
</style>
<g id="Netflix_x5F_Logo_x5F_CMYK">
	<g id="Netflix_x5F_Logo_x5F_CMYK_1_">
		<g>
			<path class="st0" d="M1288.62,533.67c20.06,1.54,40.09,3.18,60.09,4.96V185.82h-60.09V533.67z M321.93,402.76l-78.26-216.95
				h-57.11v383.36c19.99-2.85,40.02-5.57,60.09-8.18V352.52l69.59,199.91c21.89-2.54,43.81-4.94,65.78-7.2V185.82h-60.09V402.76z
				 M439.81,539.65c55.38-5.03,111.03-9.18,166.92-12.4v-59.22c-35.71,2.06-71.32,4.51-106.83,7.3v-89.64
				c23.3-0.23,53.97-0.94,81.15-0.61v-59.21c-21.71-0.05-56.61,0.3-81.15,0.62v-80.92h106.83v-59.74H439.81V539.65z M645.25,245.56
				h62.89v276.88c20-0.75,40.03-1.38,60.09-1.9V245.56h62.89v-59.74H645.25V245.56z M869.65,518.92l60.09-0.01V382.2h81.46v-59.21
				h-81.46v-77.43h107.66v-59.74H869.65V518.92z M1613.56,185.82h-66l-43.51,100.85l-39.1-100.85h-65.01l69.86,180.21l-76.27,176.79
				c21.1,2.06,42.15,4.25,63.16,6.57l44.36-102.79l43.93,113.31c22.88,2.94,45.71,6.01,68.49,9.26l0.09-0.04l-78.28-201.89
				L1613.56,185.82z M1136.01,185.79h-60.09v336.07c54.61,1.88,108.99,4.63,163.15,8.25v-59.21c-34.26-2.29-68.62-4.22-103.06-5.83
				V185.79z"/>
		</g>
	</g>
</g>
<g id="Layer_2">
</g>
</svg>
